<svg width="69" height="69" viewBox="0 0 69 69" fill="none" xmlns="http://www.w3.org/2000/svg">
<path d="M35.5836 10.5242L31.827 14.2807C31.1039 13.7718 30.3606 13.4236 29.5973 13.2361C28.8272 13.0419 28.0605 12.9917 27.2971 13.0855C26.5338 13.1792 25.7939 13.4169 25.0774 13.7986C24.3609 14.1669 23.688 14.6657 23.0585 15.2952C21.9403 16.4134 21.2305 17.6857 20.9292 19.1119C20.6211 20.5315 20.7618 22.0247 21.351 23.5916C21.9336 25.1518 22.9983 26.7053 24.5451 28.2521C26.1186 29.8257 27.6889 30.9071 29.2558 31.4964C30.8226 32.0722 32.3092 32.2061 33.7153 31.8981C35.1215 31.5767 36.3804 30.8602 37.4919 29.7487C38.108 29.1326 38.6035 28.4764 38.9785 27.78C39.3534 27.0702 39.5945 26.3404 39.7016 25.5904C39.8155 24.8337 39.7853 24.0737 39.6112 23.3104C39.4438 22.5403 39.1157 21.7971 38.6269 21.0806L42.4035 17.3442C43.2405 18.4624 43.8532 19.6845 44.2416 21.0103C44.6367 22.3294 44.7873 23.6921 44.6936 25.0982C44.5931 26.4977 44.2249 27.8838 43.5887 29.2565C42.9459 30.6225 42.0118 31.9182 40.7864 33.1436C38.9785 34.9515 36.9462 36.1468 34.6896 36.7293C32.433 37.3119 30.1062 37.2215 27.709 36.4582C25.3118 35.6948 23.0083 34.2083 20.7986 31.9986C18.5822 29.7822 17.099 27.4754 16.349 25.0782C15.5924 22.6743 15.5053 20.344 16.0879 18.0874C16.6705 15.8309 17.859 13.8053 19.6536 12.0107C20.7986 10.8657 22.024 9.96174 23.3297 9.29883C24.6355 8.63591 25.9847 8.2308 27.3775 8.08349C28.7636 7.92948 30.153 8.05335 31.5458 8.45512C32.9386 8.84349 34.2845 9.53319 35.5836 10.5242Z" fill="black"/>
<path d="M55.3203 30.9698L51.1321 33.7857C50.5509 33.1792 49.9215 32.7188 49.2441 32.4046C48.5617 32.0829 47.8561 31.8961 47.1273 31.844C46.3985 31.792 45.6653 31.8785 44.9276 32.1034C44.1924 32.3159 43.4739 32.6581 42.7721 33.1299C41.5254 33.9682 40.6313 35.0246 40.0899 36.2993C39.5434 37.5664 39.4018 38.9842 39.6649 40.5526C39.9231 42.1136 40.6319 43.7563 41.7914 45.4809C42.971 47.2353 44.2374 48.5303 45.5905 49.3658C46.9461 50.1889 48.3075 50.5852 49.6747 50.5549C51.0444 50.5121 52.3488 50.0741 53.5881 49.2409C54.275 48.7791 54.8568 48.2578 55.3336 47.677C55.8128 47.0838 56.1708 46.4474 56.4077 45.7678C56.652 45.0832 56.7627 44.3691 56.7399 43.6257C56.7244 42.8772 56.5543 42.1243 56.2295 41.3671L60.4328 38.5735C61.0088 39.7689 61.3568 41.0201 61.4767 42.3271C61.6041 43.629 61.4957 44.9269 61.1514 46.2207C60.8022 47.5071 60.2057 48.7321 59.3619 49.8956C58.5131 51.0517 57.4056 52.089 56.0394 53.0076C54.0237 54.3629 51.9107 55.106 49.7006 55.2369C47.4904 55.3679 45.3376 54.8586 43.2422 53.7091C41.1468 52.5596 39.2708 50.753 37.6144 48.2893C35.9529 45.8182 34.9915 43.3967 34.7302 41.0249C34.4638 38.6456 34.8083 36.4572 35.7636 34.4599C36.7189 32.4625 38.1969 30.7912 40.1977 29.446C41.4743 28.5877 42.7818 27.9687 44.1202 27.5892C45.4586 27.2097 46.7905 27.0784 48.1158 27.1955C49.4362 27.3051 50.7089 27.6744 51.934 28.3033C53.1615 28.9198 54.2903 29.8086 55.3203 30.9698Z" fill="black"/>
<path d="M29.3118 58.3814V53.3345C30.1394 53.1906 30.8726 52.9252 31.5114 52.5384C32.1591 52.1515 32.7079 51.6702 33.1577 51.0945C33.6075 50.5187 33.9448 49.862 34.1697 49.1243C34.4036 48.3956 34.5206 47.6084 34.5206 46.7628C34.5206 45.2604 34.1428 43.929 33.3871 42.7685C32.6404 41.608 31.5429 40.6993 30.0945 40.0426C28.6551 39.3859 26.8963 39.0575 24.8182 39.0575C22.7041 39.0575 20.9228 39.3859 19.4744 40.0426C18.035 40.7083 16.9465 41.617 16.2088 42.7685C15.4801 43.929 15.1158 45.2559 15.1158 46.7493C15.1158 47.577 15.2237 48.3506 15.4396 49.0703C15.6645 49.799 15.9929 50.4512 16.4247 51.027C16.8565 51.6118 17.3873 52.102 18.017 52.4979C18.6468 52.9027 19.3665 53.1816 20.1761 53.3345L20.1491 58.3814C18.8357 58.1925 17.6032 57.7832 16.4517 57.1534C15.3002 56.5327 14.2836 55.7185 13.402 54.7109C12.5294 53.7034 11.8456 52.5249 11.3509 51.1754C10.8651 49.826 10.6222 48.3281 10.6222 46.6818C10.6222 44.2529 11.1844 42.0848 12.3089 40.1776C13.4335 38.2704 15.0573 36.768 17.1804 35.6705C19.3035 34.5729 21.8494 34.0242 24.8182 34.0242C27.7959 34.0242 30.3419 34.5774 32.456 35.684C34.5791 36.7905 36.2029 38.2974 37.3274 40.2046C38.4519 42.1118 39.0142 44.2708 39.0142 46.6818C39.0142 48.2202 38.7983 49.6506 38.3665 50.973C37.9347 52.2955 37.3004 53.474 36.4638 54.5085C35.6361 55.5431 34.6196 56.3932 33.4141 57.059C32.2176 57.7337 30.8501 58.1745 29.3118 58.3814Z" fill="black"/>
<circle cx="34.5" cy="34.5" r="33.5" stroke="black" stroke-width="2"/>
<rect x="53.5454" y="13.4194" width="5.52116" height="2.18552" transform="rotate(45 53.5454 13.4194)" fill="black"/>
<ellipse cx="35.5" cy="37.5" rx="2.5" ry="3.5" fill="black"/>
</svg>
