<svg width="334" height="70" viewBox="0 0 334 70" fill="none" xmlns="http://www.w3.org/2000/svg">
<path d="M119.77 24.7244H114.457C114.306 23.8532 114.027 23.0814 113.619 22.4091C113.212 21.7273 112.705 21.1496 112.099 20.6761C111.493 20.2027 110.802 19.8475 110.026 19.6108C109.259 19.3646 108.43 19.2415 107.54 19.2415C105.958 19.2415 104.557 19.6392 103.335 20.4347C102.114 21.2206 101.157 22.3759 100.466 23.9006C99.7746 25.4157 99.429 27.267 99.429 29.4545C99.429 31.6799 99.7746 33.5549 100.466 35.0795C101.167 36.5947 102.123 37.7405 103.335 38.517C104.557 39.2841 105.954 39.6676 107.526 39.6676C108.397 39.6676 109.211 39.554 109.969 39.3267C110.736 39.09 111.422 38.7443 112.028 38.2898C112.644 37.8352 113.16 37.2765 113.577 36.6136C114.003 35.9508 114.296 35.1932 114.457 34.3409L119.77 34.3693C119.571 35.7519 119.14 37.0492 118.477 38.2614C117.824 39.4735 116.967 40.5436 115.906 41.4716C114.846 42.3902 113.605 43.1098 112.185 43.6307C110.764 44.142 109.188 44.3977 107.455 44.3977C104.898 44.3977 102.616 43.8059 100.608 42.6222C98.6004 41.4384 97.0189 39.7292 95.8636 37.4943C94.7083 35.2595 94.1307 32.5795 94.1307 29.4545C94.1307 26.3201 94.7131 23.6402 95.8778 21.4148C97.0426 19.1799 98.6288 17.4706 100.636 16.2869C102.644 15.1032 104.917 14.5114 107.455 14.5114C109.074 14.5114 110.58 14.7386 111.972 15.1932C113.364 15.6477 114.604 16.3153 115.693 17.196C116.782 18.0672 117.677 19.1373 118.378 20.4062C119.088 21.6657 119.552 23.1051 119.77 24.7244ZM124.596 44V14.9091H129.866V27.2244H143.346V14.9091H148.63V44H143.346V31.642H129.866V44H124.596ZM154.362 44V14.9091H173.282V19.3267H159.631V27.2244H172.302V31.642H159.631V39.5824H173.396V44H154.362ZM202.565 14.9091V44H197.877L184.17 24.1847H183.928V44H178.658V14.9091H183.374L197.067 34.7386H197.323V14.9091H202.565ZM243.129 24.7244H237.817C237.665 23.8532 237.386 23.0814 236.979 22.4091C236.571 21.7273 236.065 21.1496 235.459 20.6761C234.853 20.2027 234.161 19.8475 233.385 19.6108C232.618 19.3646 231.789 19.2415 230.899 19.2415C229.318 19.2415 227.916 19.6392 226.695 20.4347C225.473 21.2206 224.517 22.3759 223.825 23.9006C223.134 25.4157 222.788 27.267 222.788 29.4545C222.788 31.6799 223.134 33.5549 223.825 35.0795C224.526 36.5947 225.482 37.7405 226.695 38.517C227.916 39.2841 229.313 39.6676 230.885 39.6676C231.756 39.6676 232.571 39.554 233.328 39.3267C234.095 39.09 234.782 38.7443 235.388 38.2898C236.003 37.8352 236.519 37.2765 236.936 36.6136C237.362 35.9508 237.656 35.1932 237.817 34.3409L243.129 34.3693C242.93 35.7519 242.5 37.0492 241.837 38.2614C241.183 39.4735 240.326 40.5436 239.266 41.4716C238.205 42.3902 236.964 43.1098 235.544 43.6307C234.124 44.142 232.547 44.3977 230.814 44.3977C228.257 44.3977 225.975 43.8059 223.967 42.6222C221.96 41.4384 220.378 39.7292 219.223 37.4943C218.068 35.2595 217.49 32.5795 217.49 29.4545C217.49 26.3201 218.072 23.6402 219.237 21.4148C220.402 19.1799 221.988 17.4706 223.996 16.2869C226.003 15.1032 228.276 14.5114 230.814 14.5114C232.433 14.5114 233.939 14.7386 235.331 15.1932C236.723 15.6477 237.964 16.3153 239.053 17.196C240.142 18.0672 241.036 19.1373 241.737 20.4062C242.447 21.6657 242.911 23.1051 243.129 24.7244ZM247.955 44V14.9091H253.225V27.2244H266.705V14.9091H271.989V44H266.705V31.642H253.225V44H247.955ZM281.457 44H275.832L286.073 14.9091H292.579L302.835 44H297.21L289.44 20.875H289.212L281.457 44ZM281.641 32.5938H296.982V36.8267H281.641V32.5938ZM331.293 29.4545C331.293 32.589 330.706 35.2737 329.532 37.5085C328.367 39.7339 326.776 41.4384 324.759 42.6222C322.752 43.8059 320.474 44.3977 317.927 44.3977C315.379 44.3977 313.097 43.8059 311.08 42.6222C309.073 41.429 307.482 39.7197 306.308 37.4943C305.143 35.2595 304.56 32.5795 304.56 29.4545C304.56 26.3201 305.143 23.6402 306.308 21.4148C307.482 19.1799 309.073 17.4706 311.08 16.2869C313.097 15.1032 315.379 14.5114 317.927 14.5114C320.474 14.5114 322.752 15.1032 324.759 16.2869C326.776 17.4706 328.367 19.1799 329.532 21.4148C330.706 23.6402 331.293 26.3201 331.293 29.4545ZM325.995 29.4545C325.995 27.2481 325.649 25.3873 324.958 23.8722C324.276 22.3475 323.329 21.197 322.117 20.4205C320.905 19.6345 319.508 19.2415 317.927 19.2415C316.345 19.2415 314.949 19.6345 313.737 20.4205C312.524 21.197 311.573 22.3475 310.881 23.8722C310.2 25.3873 309.859 27.2481 309.859 29.4545C309.859 31.661 310.2 33.5265 310.881 35.0511C311.573 36.5663 312.524 37.7169 313.737 38.5028C314.949 39.2794 316.345 39.6676 317.927 39.6676C319.508 39.6676 320.905 39.2794 322.117 38.5028C323.329 37.7169 324.276 36.5663 324.958 35.0511C325.649 33.5265 325.995 31.661 325.995 29.4545Z" fill="white"/>
<path d="M132.682 66V54.3636H133.392V59.8466H140.403V54.3636H141.114V66H140.403V60.5057H133.392V66H132.682ZM149.825 62.9034V57.2727H150.518V66H149.825V64.5852H149.768C149.564 65.036 149.232 65.4034 148.774 65.6875C148.32 65.9716 147.782 66.1136 147.161 66.1136C146.589 66.1136 146.083 65.9886 145.643 65.7386C145.204 65.4886 144.859 65.1345 144.609 64.6761C144.359 64.214 144.234 63.6648 144.234 63.0284V57.2727H144.928V63C144.928 63.7273 145.147 64.3163 145.587 64.767C146.03 65.214 146.602 65.4375 147.303 65.4375C147.757 65.4375 148.176 65.3352 148.558 65.1307C148.941 64.9261 149.248 64.6345 149.479 64.2557C149.71 63.8731 149.825 63.4223 149.825 62.9034ZM153.391 66V57.2727H154.067V58.5909H154.135C154.302 58.1515 154.589 57.803 154.999 57.5455C155.408 57.2879 155.9 57.1591 156.476 57.1591C157.108 57.1591 157.618 57.3106 158.004 57.6136C158.394 57.9167 158.675 58.3277 158.845 58.8466H158.908C159.078 58.3352 159.383 57.9261 159.822 57.6193C160.266 57.3125 160.811 57.1591 161.459 57.1591C162.304 57.1591 162.947 57.4261 163.391 57.9602C163.838 58.4905 164.061 59.2178 164.061 60.142V66H163.368V60.142C163.368 59.4148 163.194 58.8428 162.845 58.4261C162.497 58.0095 161.985 57.8011 161.311 57.8011C160.591 57.8011 160.038 58.0265 159.652 58.4773C159.266 58.928 159.072 59.5019 159.072 60.1989V66H158.379V60.0966C158.379 59.4186 158.209 58.8674 157.868 58.4432C157.527 58.0152 157.016 57.8011 156.334 57.8011C155.872 57.8011 155.472 57.9072 155.135 58.1193C154.802 58.3314 154.542 58.6231 154.357 58.9943C154.175 59.3655 154.084 59.7917 154.084 60.2727V66H153.391ZM169.25 66.1875C168.746 66.1875 168.284 66.0871 167.864 65.8864C167.447 65.6856 167.112 65.392 166.858 65.0057C166.608 64.6193 166.483 64.1496 166.483 63.5966C166.483 63.233 166.547 62.9129 166.676 62.6364C166.805 62.3598 167.004 62.1212 167.273 61.9205C167.542 61.7197 167.886 61.5549 168.307 61.4261C168.727 61.2936 169.229 61.1913 169.812 61.1193C170.256 61.0663 170.652 61.0152 171 60.9659C171.348 60.9129 171.621 60.8314 171.818 60.7216C172.019 60.6117 172.119 60.4451 172.119 60.2216V59.858C172.119 59.2216 171.919 58.7159 171.517 58.3409C171.116 57.9659 170.563 57.7784 169.858 57.7784C169.233 57.7784 168.706 57.9167 168.278 58.1932C167.854 58.4659 167.557 58.8182 167.386 59.25L166.733 59.0057C166.9 58.589 167.14 58.2424 167.455 57.9659C167.773 57.6894 168.136 57.483 168.545 57.3466C168.958 57.2102 169.39 57.142 169.841 57.142C170.231 57.142 170.602 57.197 170.955 57.3068C171.311 57.4167 171.627 57.5833 171.903 57.8068C172.184 58.0303 172.405 58.3163 172.568 58.6648C172.731 59.0095 172.812 59.4223 172.812 59.9034V66H172.119V64.4261H172.068C171.917 64.7519 171.708 65.0492 171.443 65.3182C171.182 65.5833 170.866 65.7955 170.494 65.9545C170.127 66.1098 169.712 66.1875 169.25 66.1875ZM169.318 65.5455C169.864 65.5455 170.347 65.4129 170.767 65.1477C171.191 64.8788 171.523 64.5114 171.761 64.0455C172 63.5795 172.119 63.0511 172.119 62.4602V61.1761C172.032 61.2519 171.905 61.3201 171.739 61.3807C171.576 61.4375 171.39 61.4886 171.182 61.5341C170.977 61.5758 170.761 61.6136 170.534 61.6477C170.311 61.678 170.093 61.7064 169.881 61.733C169.244 61.8087 168.725 61.9261 168.324 62.0852C167.926 62.2405 167.634 62.4451 167.449 62.6989C167.267 62.9527 167.176 63.2595 167.176 63.6193C167.176 64.214 167.381 64.6837 167.79 65.0284C168.199 65.3731 168.708 65.5455 169.318 65.5455ZM176.412 60.3409V66H175.719V57.2727H176.395V58.6534H176.463C176.668 58.2027 176.995 57.8409 177.446 57.5682C177.897 57.2955 178.433 57.1591 179.054 57.1591C179.641 57.1591 180.156 57.2841 180.599 57.5341C181.046 57.7841 181.395 58.1402 181.645 58.6023C181.899 59.0606 182.026 59.608 182.026 60.2443V66H181.332V60.2727C181.332 59.5303 181.111 58.9337 180.668 58.483C180.228 58.0284 179.647 57.8011 178.923 57.8011C178.438 57.8011 178.007 57.9072 177.628 58.1193C177.249 58.3314 176.952 58.6288 176.736 59.0114C176.52 59.3902 176.412 59.8333 176.412 60.3409ZM192.338 66.1591C191.675 66.1591 191.086 66.0208 190.571 65.7443C190.06 65.4678 189.656 65.0947 189.361 64.625C189.069 64.1515 188.923 63.6193 188.923 63.0284C188.923 62.6345 189.001 62.2746 189.156 61.9489C189.312 61.6193 189.546 61.2955 189.861 60.9773C190.179 60.6553 190.58 60.3144 191.065 59.9545L192.764 58.6875C193.241 58.3314 193.59 57.9981 193.81 57.6875C194.033 57.3731 194.145 57.0133 194.145 56.608C194.145 56.1231 193.978 55.7083 193.645 55.3636C193.315 55.0189 192.895 54.8466 192.384 54.8466C192.035 54.8466 191.715 54.9375 191.423 55.1193C191.135 55.2973 190.904 55.5303 190.73 55.8182C190.56 56.1061 190.474 56.4148 190.474 56.7443C190.474 57.0019 190.535 57.2576 190.656 57.5114C190.781 57.7614 190.957 58.0379 191.185 58.3409C191.416 58.6402 191.692 58.9886 192.014 59.3864L197.31 66H196.469L191.605 59.9375C191.23 59.4754 190.906 59.0701 190.634 58.7216C190.361 58.3731 190.151 58.0417 190.003 57.7273C189.855 57.4129 189.781 57.0814 189.781 56.733C189.781 56.267 189.895 55.8447 190.122 55.4659C190.353 55.0833 190.664 54.7803 191.054 54.5568C191.444 54.3333 191.884 54.2216 192.372 54.2216C192.857 54.2216 193.285 54.3277 193.656 54.5398C194.027 54.7481 194.317 55.0341 194.526 55.3977C194.734 55.7576 194.838 56.161 194.838 56.608C194.838 57.1042 194.705 57.553 194.44 57.9545C194.179 58.3561 193.772 58.7708 193.219 59.1989L191.31 60.6193C190.673 61.1042 190.232 61.536 189.986 61.9148C189.743 62.2936 189.622 62.6648 189.622 63.0284C189.622 63.483 189.74 63.8977 189.974 64.2727C190.209 64.6477 190.529 64.9489 190.935 65.1761C191.344 65.4034 191.808 65.5189 192.327 65.5227C192.849 65.5152 193.332 65.4129 193.776 65.2159C194.219 65.0189 194.609 64.7443 194.946 64.392C195.287 64.036 195.563 63.6136 195.776 63.125C195.991 62.6326 196.132 62.0852 196.196 61.483L196.872 61.517C196.834 61.9905 196.751 62.4167 196.622 62.7955C196.493 63.1705 196.344 63.5019 196.173 63.7898C196.007 64.0777 195.846 64.322 195.69 64.5227C195.645 64.5833 195.601 64.642 195.56 64.6989C195.518 64.7557 195.473 64.8106 195.423 64.8636C195.041 65.2765 194.571 65.5966 194.014 65.8239C193.461 66.0473 192.902 66.1591 192.338 66.1591ZM203.018 55.0227V54.3636H211.172V55.0227H207.45V66H206.74V55.0227H203.018ZM215.653 66.1818C214.866 66.1818 214.18 65.9867 213.597 65.5966C213.013 65.2064 212.563 64.6723 212.244 63.9943C211.926 63.3163 211.767 62.5436 211.767 61.6761C211.767 60.8049 211.926 60.0284 212.244 59.3466C212.566 58.6648 213.008 58.1269 213.568 57.733C214.129 57.339 214.769 57.142 215.489 57.142C215.977 57.142 216.439 57.2405 216.875 57.4375C217.314 57.6307 217.701 57.911 218.034 58.2784C218.371 58.6458 218.634 59.089 218.824 59.608C219.017 60.1269 219.114 60.7102 219.114 61.358V61.7898H212.205V61.1591H218.42C218.42 60.5265 218.292 59.9564 218.034 59.4489C217.777 58.9413 217.426 58.5379 216.983 58.2386C216.54 57.9394 216.042 57.7898 215.489 57.7898C214.909 57.7898 214.392 57.9527 213.938 58.2784C213.487 58.6004 213.129 59.036 212.864 59.5852C212.602 60.1345 212.466 60.7481 212.455 61.4261V61.7102C212.455 62.4375 212.581 63.0909 212.835 63.6705C213.093 64.2462 213.46 64.7027 213.938 65.0398C214.415 65.3731 214.987 65.5398 215.653 65.5398C216.131 65.5398 216.538 65.4602 216.875 65.3011C217.216 65.1383 217.494 64.9413 217.71 64.7102C217.926 64.4792 218.089 64.2557 218.199 64.0398L218.83 64.2955C218.697 64.5871 218.491 64.8788 218.21 65.1705C217.934 65.4583 217.581 65.6989 217.153 65.892C216.729 66.0852 216.229 66.1818 215.653 66.1818ZM224.773 66.1818C224.03 66.1818 223.377 65.9867 222.812 65.5966C222.248 65.2027 221.807 64.6648 221.489 63.983C221.174 63.3011 221.017 62.5284 221.017 61.6648C221.017 60.8011 221.176 60.0284 221.494 59.3466C221.813 58.6648 222.254 58.1269 222.818 57.733C223.383 57.339 224.032 57.142 224.767 57.142C225.32 57.142 225.824 57.2557 226.278 57.483C226.737 57.7102 227.116 58.0265 227.415 58.4318C227.718 58.8371 227.911 59.3068 227.994 59.8409H227.29C227.176 59.25 226.892 58.7614 226.438 58.375C225.987 57.9848 225.432 57.7898 224.773 57.7898C224.182 57.7898 223.655 57.9564 223.193 58.2898C222.731 58.6193 222.367 59.0758 222.102 59.6591C221.837 60.2386 221.705 60.9034 221.705 61.6534C221.705 62.392 221.833 63.0549 222.091 63.642C222.348 64.2254 222.708 64.6875 223.17 65.0284C223.633 65.3693 224.167 65.5398 224.773 65.5398C225.201 65.5398 225.591 65.4545 225.943 65.2841C226.299 65.1136 226.597 64.8712 226.835 64.5568C227.074 64.2424 227.231 63.875 227.307 63.4545H228.011C227.928 63.9924 227.739 64.4659 227.443 64.875C227.148 65.2841 226.771 65.6042 226.312 65.8352C225.854 66.0663 225.341 66.1818 224.773 66.1818ZM231.068 60.3409V66H230.375V54.3636H231.068V58.6534H231.136C231.341 58.1989 231.667 57.8371 232.114 57.5682C232.564 57.2955 233.104 57.1591 233.733 57.1591C234.32 57.1591 234.837 57.2841 235.284 57.5341C235.731 57.7803 236.08 58.1345 236.33 58.5966C236.583 59.0549 236.71 59.6042 236.71 60.2443V66H236.023V60.2727C236.023 59.5265 235.801 58.928 235.358 58.4773C234.915 58.0265 234.33 57.8011 233.602 57.8011C233.114 57.8011 232.678 57.9072 232.295 58.1193C231.913 58.3314 231.612 58.6288 231.392 59.0114C231.176 59.3902 231.068 59.8333 231.068 60.3409ZM247.01 66.1591C246.347 66.1591 245.758 66.0208 245.243 65.7443C244.732 65.4678 244.328 65.0947 244.033 64.625C243.741 64.1515 243.595 63.6193 243.595 63.0284C243.595 62.6345 243.673 62.2746 243.828 61.9489C243.983 61.6193 244.218 61.2955 244.533 60.9773C244.851 60.6553 245.252 60.3144 245.737 59.9545L247.436 58.6875C247.913 58.3314 248.262 57.9981 248.482 57.6875C248.705 57.3731 248.817 57.0133 248.817 56.608C248.817 56.1231 248.65 55.7083 248.317 55.3636C247.987 55.0189 247.567 54.8466 247.055 54.8466C246.707 54.8466 246.387 54.9375 246.095 55.1193C245.807 55.2973 245.576 55.5303 245.402 55.8182C245.232 56.1061 245.146 56.4148 245.146 56.7443C245.146 57.0019 245.207 57.2576 245.328 57.5114C245.453 57.7614 245.629 58.0379 245.857 58.3409C246.088 58.6402 246.364 58.9886 246.686 59.3864L251.982 66H251.141L246.277 59.9375C245.902 59.4754 245.578 59.0701 245.305 58.7216C245.033 58.3731 244.822 58.0417 244.675 57.7273C244.527 57.4129 244.453 57.0814 244.453 56.733C244.453 56.267 244.567 55.8447 244.794 55.4659C245.025 55.0833 245.336 54.7803 245.726 54.5568C246.116 54.3333 246.555 54.2216 247.044 54.2216C247.529 54.2216 247.957 54.3277 248.328 54.5398C248.699 54.7481 248.989 55.0341 249.197 55.3977C249.406 55.7576 249.51 56.161 249.51 56.608C249.51 57.1042 249.377 57.553 249.112 57.9545C248.851 58.3561 248.444 58.7708 247.891 59.1989L245.982 60.6193C245.345 61.1042 244.904 61.536 244.658 61.9148C244.415 62.2936 244.294 62.6648 244.294 63.0284C244.294 63.483 244.411 63.8977 244.646 64.2727C244.881 64.6477 245.201 64.9489 245.607 65.1761C246.016 65.4034 246.48 65.5189 246.999 65.5227C247.521 65.5152 248.004 65.4129 248.447 65.2159C248.891 65.0189 249.281 64.7443 249.618 64.392C249.959 64.036 250.235 63.6136 250.447 63.125C250.663 62.6326 250.804 62.0852 250.868 61.483L251.544 61.517C251.506 61.9905 251.423 62.4167 251.294 62.7955C251.165 63.1705 251.016 63.5019 250.845 63.7898C250.679 64.0777 250.518 64.322 250.362 64.5227C250.317 64.5833 250.273 64.642 250.232 64.6989C250.19 64.7557 250.144 64.8106 250.095 64.8636C249.713 65.2765 249.243 65.5966 248.686 65.8239C248.133 66.0473 247.574 66.1591 247.01 66.1591ZM258.463 66V54.3636H262.048C262.783 54.3636 263.416 54.5076 263.946 54.7955C264.476 55.0833 264.884 55.483 265.168 55.9943C265.452 56.5019 265.594 57.0928 265.594 57.767C265.594 58.4337 265.452 59.0208 265.168 59.5284C264.884 60.0322 264.476 60.4261 263.946 60.7102C263.42 60.9943 262.789 61.1364 262.054 61.1364H258.844V60.4716H262.037C262.635 60.4716 263.147 60.3598 263.571 60.1364C263.995 59.9129 264.321 59.6004 264.548 59.1989C264.776 58.7936 264.889 58.3163 264.889 57.767C264.889 57.214 264.776 56.733 264.548 56.3239C264.321 55.911 263.993 55.5909 263.565 55.3636C263.141 55.1364 262.63 55.0227 262.031 55.0227H259.173V66H258.463ZM263.241 60.7273L266.105 66H265.287L262.44 60.7273H263.241ZM271.338 66.1818C270.618 66.1818 269.978 65.9886 269.418 65.6023C268.857 65.2121 268.416 64.6761 268.094 63.9943C267.772 63.3125 267.611 62.536 267.611 61.6648C267.611 60.7898 267.772 60.0133 268.094 59.3352C268.416 58.6534 268.857 58.1174 269.418 57.7273C269.978 57.3371 270.618 57.142 271.338 57.142C272.058 57.142 272.698 57.3371 273.259 57.7273C273.819 58.1174 274.26 58.6534 274.582 59.3352C274.904 60.017 275.065 60.7936 275.065 61.6648C275.065 62.536 274.904 63.3125 274.582 63.9943C274.26 64.6761 273.819 65.2121 273.259 65.6023C272.698 65.9886 272.058 66.1818 271.338 66.1818ZM271.338 65.5398C271.948 65.5398 272.48 65.3674 272.935 65.0227C273.393 64.678 273.747 64.2121 273.997 63.625C274.251 63.0379 274.378 62.3845 274.378 61.6648C274.378 60.9451 274.251 60.2936 273.997 59.7102C273.743 59.1231 273.389 58.6572 272.935 58.3125C272.48 57.964 271.948 57.7898 271.338 57.7898C270.728 57.7898 270.196 57.964 269.741 58.3125C269.287 58.6572 268.933 59.1231 268.679 59.7102C268.425 60.2936 268.298 60.9451 268.298 61.6648C268.298 62.3845 268.423 63.0379 268.673 63.625C268.927 64.2121 269.281 64.678 269.736 65.0227C270.194 65.3674 270.728 65.5398 271.338 65.5398ZM277.697 66V54.3636H278.385V59.2216H278.453C278.589 58.8466 278.783 58.5019 279.033 58.1875C279.283 57.8731 279.593 57.6212 279.964 57.4318C280.336 57.2386 280.769 57.142 281.266 57.142C281.966 57.142 282.578 57.3371 283.101 57.7273C283.624 58.1136 284.029 58.6477 284.317 59.3295C284.605 60.0076 284.749 60.7841 284.749 61.6591C284.749 62.5417 284.605 63.3239 284.317 64.0057C284.029 64.6837 283.625 65.2159 283.107 65.6023C282.588 65.9886 281.976 66.1818 281.271 66.1818C280.775 66.1818 280.341 66.0871 279.97 65.8977C279.599 65.7045 279.288 65.4508 279.038 65.1364C278.788 64.8182 278.593 64.4716 278.453 64.0966H278.374V66H277.697ZM278.379 61.6534C278.379 62.3958 278.491 63.0606 278.714 63.6477C278.942 64.2311 279.268 64.6932 279.692 65.0341C280.116 65.3712 280.624 65.5398 281.214 65.5398C281.813 65.5398 282.324 65.3693 282.749 65.0284C283.173 64.6837 283.497 64.2178 283.72 63.6307C283.947 63.0436 284.061 62.3845 284.061 61.6534C284.061 60.9223 283.947 60.2652 283.72 59.6818C283.497 59.0985 283.173 58.6383 282.749 58.3011C282.324 57.9602 281.813 57.7898 281.214 57.7898C280.624 57.7898 280.116 57.9583 279.692 58.2955C279.268 58.6288 278.942 59.0871 278.714 59.6705C278.491 60.25 278.379 60.911 278.379 61.6534ZM290.385 66.1818C289.665 66.1818 289.025 65.9886 288.464 65.6023C287.904 65.2121 287.463 64.6761 287.141 63.9943C286.819 63.3125 286.658 62.536 286.658 61.6648C286.658 60.7898 286.819 60.0133 287.141 59.3352C287.463 58.6534 287.904 58.1174 288.464 57.7273C289.025 57.3371 289.665 57.142 290.385 57.142C291.105 57.142 291.745 57.3371 292.305 57.7273C292.866 58.1174 293.307 58.6534 293.629 59.3352C293.951 60.017 294.112 60.7936 294.112 61.6648C294.112 62.536 293.951 63.3125 293.629 63.9943C293.307 64.6761 292.866 65.2121 292.305 65.6023C291.745 65.9886 291.105 66.1818 290.385 66.1818ZM290.385 65.5398C290.995 65.5398 291.527 65.3674 291.982 65.0227C292.44 64.678 292.794 64.2121 293.044 63.625C293.298 63.0379 293.425 62.3845 293.425 61.6648C293.425 60.9451 293.298 60.2936 293.044 59.7102C292.79 59.1231 292.436 58.6572 291.982 58.3125C291.527 57.964 290.995 57.7898 290.385 57.7898C289.775 57.7898 289.243 57.964 288.788 58.3125C288.334 58.6572 287.98 59.1231 287.726 59.7102C287.472 60.2936 287.345 60.9451 287.345 61.6648C287.345 62.3845 287.47 63.0379 287.72 63.625C287.974 64.2121 288.328 64.678 288.783 65.0227C289.241 65.3674 289.775 65.5398 290.385 65.5398ZM299.585 57.2727V57.892H295.773V57.2727H299.585ZM297.062 55.1818H297.75V63.9375C297.75 64.2936 297.818 64.5852 297.955 64.8125C298.095 65.036 298.277 65.2027 298.5 65.3125C298.727 65.4186 298.97 65.4716 299.227 65.4716C299.352 65.4716 299.46 65.4621 299.551 65.4432C299.646 65.4242 299.735 65.3996 299.818 65.3693L299.989 66C299.883 66.0379 299.765 66.0701 299.636 66.0966C299.508 66.1269 299.356 66.142 299.182 66.142C298.818 66.142 298.473 66.0606 298.148 65.8977C297.826 65.7348 297.564 65.4981 297.364 65.1875C297.163 64.8769 297.062 64.5019 297.062 64.0625V55.1818Z" fill="#B9B9B9"/>
<path d="M35.5836 10.5242L31.8271 14.2807C31.1039 13.7718 30.3606 13.4236 29.5973 13.2361C28.8272 13.0419 28.0605 12.9917 27.2971 13.0855C26.5338 13.1792 25.7939 13.4169 25.0774 13.7986C24.3609 14.1669 23.688 14.6657 23.0585 15.2952C21.9403 16.4134 21.2305 17.6857 20.9292 19.1119C20.6211 20.5315 20.7618 22.0247 21.351 23.5916C21.9336 25.1518 22.9983 26.7053 24.5451 28.2521C26.1186 29.8257 27.6889 30.9071 29.2558 31.4964C30.8226 32.0722 32.3092 32.2061 33.7153 31.8981C35.1215 31.5767 36.3804 30.8602 37.4919 29.7487C38.108 29.1326 38.6035 28.4764 38.9785 27.78C39.3535 27.0702 39.5945 26.3404 39.7017 25.5904C39.8155 24.8337 39.7854 24.0737 39.6113 23.3104C39.4439 22.5403 39.1157 21.7971 38.6269 21.0806L42.4035 17.3442C43.2405 18.4624 43.8532 19.6845 44.2416 21.0103C44.6367 22.3294 44.7873 23.6921 44.6936 25.0982C44.5931 26.4977 44.2249 27.8838 43.5887 29.2565C42.9459 30.6225 42.0118 31.9182 40.7864 33.1436C38.9785 34.9515 36.9462 36.1468 34.6896 36.7293C32.433 37.3119 30.1062 37.2215 27.709 36.4582C25.3118 35.6948 23.0083 34.2083 20.7986 31.9986C18.5822 29.7822 17.099 27.4754 16.349 25.0782C15.5924 22.6743 15.5053 20.344 16.0879 18.0874C16.6705 15.8309 17.859 13.8053 19.6536 12.0107C20.7986 10.8657 22.024 9.96174 23.3297 9.29883C24.6355 8.63591 25.9847 8.2308 27.3775 8.08349C28.7636 7.92948 30.153 8.05335 31.5458 8.45512C32.9386 8.84349 34.2845 9.53319 35.5836 10.5242Z" fill="white"/>
<path d="M55.3204 30.9698L51.1321 33.7857C50.5509 33.1792 49.9215 32.7188 49.2441 32.4046C48.5617 32.0829 47.8561 31.8961 47.1273 31.844C46.3985 31.792 45.6653 31.8785 44.9276 32.1034C44.1924 32.3159 43.4739 32.6581 42.7721 33.1299C41.5254 33.9682 40.6313 35.0246 40.0899 36.2993C39.5434 37.5664 39.4018 38.9842 39.6649 40.5526C39.9231 42.1136 40.6319 43.7563 41.7914 45.4809C42.971 47.2353 44.2374 48.5303 45.5905 49.3658C46.9461 50.1889 48.3075 50.5852 49.6747 50.5549C51.0444 50.5121 52.3488 50.0741 53.5881 49.2409C54.275 48.7791 54.8568 48.2578 55.3336 47.677C55.8128 47.0838 56.1708 46.4474 56.4077 45.7678C56.652 45.0832 56.7627 44.3691 56.7399 43.6257C56.7245 42.8772 56.5543 42.1243 56.2295 41.3671L60.4328 38.5735C61.0088 39.7689 61.3568 41.0201 61.4767 42.3271C61.6041 43.629 61.4957 44.9269 61.1515 46.2207C60.8022 47.5071 60.2057 48.7321 59.3619 49.8956C58.5131 51.0517 57.4056 52.089 56.0394 53.0076C54.0237 54.3629 51.9107 55.106 49.7006 55.2369C47.4904 55.3679 45.3376 54.8586 43.2422 53.7091C41.1468 52.5596 39.2708 50.753 37.6144 48.2893C35.9529 45.8182 34.9915 43.3967 34.7302 41.0249C34.4638 38.6456 34.8083 36.4572 35.7636 34.4599C36.7189 32.4625 38.1969 30.7912 40.1977 29.446C41.4743 28.5877 42.7818 27.9687 44.1202 27.5892C45.4586 27.2097 46.7905 27.0784 48.1158 27.1955C49.4362 27.3051 50.7089 27.6744 51.934 28.3033C53.1615 28.9198 54.2903 29.8086 55.3204 30.9698Z" fill="white"/>
<path d="M29.3118 58.3814V53.3345C30.1394 53.1906 30.8726 52.9252 31.5114 52.5384C32.1591 52.1515 32.7079 51.6702 33.1577 51.0945C33.6075 50.5187 33.9448 49.862 34.1697 49.1243C34.4036 48.3956 34.5206 47.6084 34.5206 46.7628C34.5206 45.2604 34.1428 43.929 33.3871 42.7685C32.6404 41.608 31.5429 40.6993 30.0945 40.0426C28.6551 39.3859 26.8963 39.0575 24.8182 39.0575C22.7041 39.0575 20.9228 39.3859 19.4744 40.0426C18.035 40.7083 16.9465 41.617 16.2088 42.7685C15.4801 43.929 15.1158 45.2559 15.1158 46.7493C15.1158 47.577 15.2237 48.3506 15.4396 49.0703C15.6645 49.799 15.9929 50.4512 16.4247 51.027C16.8565 51.6118 17.3873 52.102 18.017 52.4979C18.6468 52.9027 19.3665 53.1816 20.1761 53.3345L20.1492 58.3814C18.8357 58.1925 17.6032 57.7832 16.4517 57.1534C15.3002 56.5327 14.2836 55.7185 13.402 54.7109C12.5294 53.7034 11.8456 52.5249 11.3509 51.1754C10.8651 49.826 10.6222 48.3281 10.6222 46.6818C10.6222 44.2529 11.1844 42.0848 12.309 40.1776C13.4335 38.2704 15.0573 36.768 17.1804 35.6705C19.3035 34.5729 21.8494 34.0242 24.8182 34.0242C27.7959 34.0242 30.3419 34.5774 32.456 35.684C34.5791 36.7905 36.2029 38.2974 37.3274 40.2046C38.4519 42.1118 39.0142 44.2708 39.0142 46.6818C39.0142 48.2202 38.7983 49.6506 38.3665 50.973C37.9347 52.2955 37.3004 53.474 36.4638 54.5085C35.6361 55.5431 34.6196 56.3932 33.4141 57.059C32.2176 57.7337 30.8501 58.1745 29.3118 58.3814Z" fill="white"/>
<circle cx="34.5" cy="34.5" r="33.5" stroke="white" stroke-width="2"/>
<rect x="53.5454" y="13.4194" width="5.52116" height="2.18552" transform="rotate(45 53.5454 13.4194)" fill="white"/>
<ellipse cx="35.5" cy="37.5" rx="2.5" ry="3.5" fill="white"/>
</svg>
