<svg width="242" height="65" viewBox="0 0 242 65" fill="none" xmlns="http://www.w3.org/2000/svg">
<path d="M27.7699 19.7244H22.4574C22.3059 18.8532 22.0265 18.0814 21.6193 17.4091C21.2121 16.7273 20.7055 16.1496 20.0994 15.6761C19.4934 15.2027 18.8021 14.8475 18.0256 14.6108C17.2585 14.3646 16.4299 14.2415 15.5398 14.2415C13.9583 14.2415 12.5568 14.6392 11.3352 15.4347C10.1136 16.2206 9.1572 17.3759 8.46591 18.9006C7.77462 20.4157 7.42898 22.267 7.42898 24.4545C7.42898 26.6799 7.77462 28.5549 8.46591 30.0795C9.16667 31.5947 10.1231 32.7405 11.3352 33.517C12.5568 34.2841 13.9536 34.6676 15.5256 34.6676C16.3968 34.6676 17.2112 34.554 17.9688 34.3267C18.7358 34.09 19.4223 33.7443 20.0284 33.2898C20.6439 32.8352 21.16 32.2765 21.5767 31.6136C22.0028 30.9508 22.2964 30.1932 22.4574 29.3409L27.7699 29.3693C27.571 30.7519 27.1402 32.0492 26.4773 33.2614C25.8239 34.4735 24.9669 35.5436 23.9062 36.4716C22.8456 37.3902 21.6051 38.1098 20.1847 38.6307C18.7642 39.142 17.1875 39.3977 15.4545 39.3977C12.8977 39.3977 10.6155 38.8059 8.60795 37.6222C6.60038 36.4384 5.01894 34.7292 3.86364 32.4943C2.70833 30.2595 2.13068 27.5795 2.13068 24.4545C2.13068 21.3201 2.71307 18.6402 3.87784 16.4148C5.04261 14.1799 6.62879 12.4706 8.63636 11.2869C10.6439 10.1032 12.9167 9.51136 15.4545 9.51136C17.0739 9.51136 18.5795 9.73864 19.9716 10.1932C21.3636 10.6477 22.6042 11.3153 23.6932 12.196C24.7822 13.0672 25.6771 14.1373 26.3778 15.4062C27.0881 16.6657 27.5521 18.1051 27.7699 19.7244ZM32.5959 39V9.90909H37.8658V22.2244H51.3459V9.90909H56.63V39H51.3459V26.642H37.8658V39H32.5959ZM62.3615 39V9.90909H81.282V14.3267H67.6314V22.2244H80.3018V26.642H67.6314V34.5824H81.3956V39H62.3615ZM110.565 9.90909V39H105.877L92.1697 19.1847H91.9283V39H86.6584V9.90909H91.3743L105.067 29.7386H105.323V9.90909H110.565ZM151.129 19.7244H145.817C145.665 18.8532 145.386 18.0814 144.979 17.4091C144.571 16.7273 144.065 16.1496 143.459 15.6761C142.853 15.2027 142.161 14.8475 141.385 14.6108C140.618 14.3646 139.789 14.2415 138.899 14.2415C137.318 14.2415 135.916 14.6392 134.695 15.4347C133.473 16.2206 132.517 17.3759 131.825 18.9006C131.134 20.4157 130.788 22.267 130.788 24.4545C130.788 26.6799 131.134 28.5549 131.825 30.0795C132.526 31.5947 133.482 32.7405 134.695 33.517C135.916 34.2841 137.313 34.6676 138.885 34.6676C139.756 34.6676 140.571 34.554 141.328 34.3267C142.095 34.09 142.782 33.7443 143.388 33.2898C144.003 32.8352 144.519 32.2765 144.936 31.6136C145.362 30.9508 145.656 30.1932 145.817 29.3409L151.129 29.3693C150.93 30.7519 150.5 32.0492 149.837 33.2614C149.183 34.4735 148.326 35.5436 147.266 36.4716C146.205 37.3902 144.964 38.1098 143.544 38.6307C142.124 39.142 140.547 39.3977 138.814 39.3977C136.257 39.3977 133.975 38.8059 131.967 37.6222C129.96 36.4384 128.378 34.7292 127.223 32.4943C126.068 30.2595 125.49 27.5795 125.49 24.4545C125.49 21.3201 126.072 18.6402 127.237 16.4148C128.402 14.1799 129.988 12.4706 131.996 11.2869C134.003 10.1032 136.276 9.51136 138.814 9.51136C140.433 9.51136 141.939 9.73864 143.331 10.1932C144.723 10.6477 145.964 11.3153 147.053 12.196C148.142 13.0672 149.036 14.1373 149.737 15.4062C150.447 16.6657 150.911 18.1051 151.129 19.7244ZM155.955 39V9.90909H161.225V22.2244H174.705V9.90909H179.989V39H174.705V26.642H161.225V39H155.955ZM189.457 39H183.832L194.073 9.90909H200.579L210.835 39H205.21L197.44 15.875H197.212L189.457 39ZM189.641 27.5938H204.982V31.8267H189.641V27.5938ZM239.293 24.4545C239.293 27.589 238.706 30.2737 237.532 32.5085C236.367 34.7339 234.776 36.4384 232.759 37.6222C230.752 38.8059 228.474 39.3977 225.927 39.3977C223.379 39.3977 221.097 38.8059 219.08 37.6222C217.073 36.429 215.482 34.7197 214.308 32.4943C213.143 30.2595 212.56 27.5795 212.56 24.4545C212.56 21.3201 213.143 18.6402 214.308 16.4148C215.482 14.1799 217.073 12.4706 219.08 11.2869C221.097 10.1032 223.379 9.51136 225.927 9.51136C228.474 9.51136 230.752 10.1032 232.759 11.2869C234.776 12.4706 236.367 14.1799 237.532 16.4148C238.706 18.6402 239.293 21.3201 239.293 24.4545ZM233.995 24.4545C233.995 22.2481 233.649 20.3873 232.958 18.8722C232.276 17.3475 231.329 16.197 230.117 15.4205C228.905 14.6345 227.508 14.2415 225.927 14.2415C224.345 14.2415 222.949 14.6345 221.737 15.4205C220.524 16.197 219.573 17.3475 218.881 18.8722C218.2 20.3873 217.859 22.2481 217.859 24.4545C217.859 26.661 218.2 28.5265 218.881 30.0511C219.573 31.5663 220.524 32.7169 221.737 33.5028C222.949 34.2794 224.345 34.6676 225.927 34.6676C227.508 34.6676 228.905 34.2794 230.117 33.5028C231.329 32.7169 232.276 31.5663 232.958 30.0511C233.649 28.5265 233.995 26.661 233.995 24.4545Z" fill="black"/>
<path d="M40.6818 61V49.3636H41.392V54.8466H48.4034V49.3636H49.1136V61H48.4034V55.5057H41.392V61H40.6818ZM57.8253 57.9034V52.2727H58.5185V61H57.8253V59.5852H57.7685C57.5639 60.036 57.2325 60.4034 56.7741 60.6875C56.3196 60.9716 55.7817 61.1136 55.1605 61.1136C54.5885 61.1136 54.0829 60.9886 53.6435 60.7386C53.2041 60.4886 52.8594 60.1345 52.6094 59.6761C52.3594 59.214 52.2344 58.6648 52.2344 58.0284V52.2727H52.9276V58C52.9276 58.7273 53.1473 59.3163 53.5866 59.767C54.0298 60.214 54.6018 60.4375 55.3026 60.4375C55.7571 60.4375 56.1757 60.3352 56.5582 60.1307C56.9408 59.9261 57.2476 59.6345 57.4787 59.2557C57.7098 58.8731 57.8253 58.4223 57.8253 57.9034ZM61.3906 61V52.2727H62.0668V53.5909H62.1349C62.3016 53.1515 62.5895 52.803 62.9986 52.5455C63.4077 52.2879 63.9001 52.1591 64.4759 52.1591C65.1084 52.1591 65.6179 52.3106 66.0043 52.6136C66.3944 52.9167 66.6747 53.3277 66.8452 53.8466H66.9077C67.0781 53.3352 67.383 52.9261 67.8224 52.6193C68.2656 52.3125 68.8111 52.1591 69.4588 52.1591C70.3035 52.1591 70.9474 52.4261 71.3906 52.9602C71.8376 53.4905 72.0611 54.2178 72.0611 55.142V61H71.3679V55.142C71.3679 54.4148 71.1937 53.8428 70.8452 53.4261C70.4967 53.0095 69.9853 52.8011 69.3111 52.8011C68.5914 52.8011 68.0384 53.0265 67.652 53.4773C67.2656 53.928 67.0724 54.5019 67.0724 55.1989V61H66.3793V55.0966C66.3793 54.4186 66.2088 53.8674 65.8679 53.4432C65.527 53.0152 65.0156 52.8011 64.3338 52.8011C63.8717 52.8011 63.4721 52.9072 63.1349 53.1193C62.8016 53.3314 62.5421 53.6231 62.3565 53.9943C62.1747 54.3655 62.0838 54.7917 62.0838 55.2727V61H61.3906ZM77.25 61.1875C76.7462 61.1875 76.2841 61.0871 75.8636 60.8864C75.447 60.6856 75.1117 60.392 74.858 60.0057C74.608 59.6193 74.483 59.1496 74.483 58.5966C74.483 58.233 74.5473 57.9129 74.6761 57.6364C74.8049 57.3598 75.0038 57.1212 75.2727 56.9205C75.5417 56.7197 75.8864 56.5549 76.3068 56.4261C76.7273 56.2936 77.2292 56.1913 77.8125 56.1193C78.2557 56.0663 78.6515 56.0152 79 55.9659C79.3485 55.9129 79.6212 55.8314 79.8182 55.7216C80.0189 55.6117 80.1193 55.4451 80.1193 55.2216V54.858C80.1193 54.2216 79.9186 53.7159 79.517 53.3409C79.1155 52.9659 78.5625 52.7784 77.858 52.7784C77.233 52.7784 76.7064 52.9167 76.2784 53.1932C75.8542 53.4659 75.5568 53.8182 75.3864 54.25L74.733 54.0057C74.8996 53.589 75.1402 53.2424 75.4545 52.9659C75.7727 52.6894 76.1364 52.483 76.5455 52.3466C76.9583 52.2102 77.3902 52.142 77.8409 52.142C78.2311 52.142 78.6023 52.197 78.9545 52.3068C79.3106 52.4167 79.6269 52.5833 79.9034 52.8068C80.1837 53.0303 80.4053 53.3163 80.5682 53.6648C80.7311 54.0095 80.8125 54.4223 80.8125 54.9034V61H80.1193V59.4261H80.0682C79.9167 59.7519 79.7083 60.0492 79.4432 60.3182C79.1818 60.5833 78.8655 60.7955 78.4943 60.9545C78.1269 61.1098 77.7121 61.1875 77.25 61.1875ZM77.3182 60.5455C77.8636 60.5455 78.3466 60.4129 78.767 60.1477C79.1913 59.8788 79.5227 59.5114 79.7614 59.0455C80 58.5795 80.1193 58.0511 80.1193 57.4602V56.1761C80.0322 56.2519 79.9053 56.3201 79.7386 56.3807C79.5758 56.4375 79.3902 56.4886 79.1818 56.5341C78.9773 56.5758 78.7614 56.6136 78.5341 56.6477C78.3106 56.678 78.0928 56.7064 77.8807 56.733C77.2443 56.8087 76.7254 56.9261 76.3239 57.0852C75.9261 57.2405 75.6345 57.4451 75.4489 57.6989C75.267 57.9527 75.1761 58.2595 75.1761 58.6193C75.1761 59.214 75.3807 59.6837 75.7898 60.0284C76.1989 60.3731 76.7083 60.5455 77.3182 60.5455ZM84.4119 55.3409V61H83.7188V52.2727H84.3949V53.6534H84.4631C84.6676 53.2027 84.9953 52.8409 85.446 52.5682C85.8968 52.2955 86.4328 52.1591 87.054 52.1591C87.6411 52.1591 88.1563 52.2841 88.5994 52.5341C89.0464 52.7841 89.3949 53.1402 89.6449 53.6023C89.8987 54.0606 90.0256 54.608 90.0256 55.2443V61H89.3324V55.2727C89.3324 54.5303 89.1108 53.9337 88.6676 53.483C88.2282 53.0284 87.6468 52.8011 86.9233 52.8011C86.4384 52.8011 86.0066 52.9072 85.6278 53.1193C85.2491 53.3314 84.9517 53.6288 84.7358 54.0114C84.5199 54.3902 84.4119 54.8333 84.4119 55.3409ZM100.338 61.1591C99.6752 61.1591 99.0862 61.0208 98.571 60.7443C98.0597 60.4678 97.6563 60.0947 97.3608 59.625C97.0691 59.1515 96.9233 58.6193 96.9233 58.0284C96.9233 57.6345 97.0009 57.2746 97.1562 56.9489C97.3116 56.6193 97.5464 56.2955 97.8608 55.9773C98.179 55.6553 98.5805 55.3144 99.0653 54.9545L100.764 53.6875C101.241 53.3314 101.59 52.9981 101.81 52.6875C102.033 52.3731 102.145 52.0133 102.145 51.608C102.145 51.1231 101.978 50.7083 101.645 50.3636C101.315 50.0189 100.895 49.8466 100.384 49.8466C100.035 49.8466 99.715 49.9375 99.4233 50.1193C99.1354 50.2973 98.9044 50.5303 98.7301 50.8182C98.5597 51.1061 98.4744 51.4148 98.4744 51.7443C98.4744 52.0019 98.535 52.2576 98.6562 52.5114C98.7812 52.7614 98.9574 53.0379 99.1847 53.3409C99.4157 53.6402 99.6922 53.9886 100.014 54.3864L105.31 61H104.469L99.6051 54.9375C99.2301 54.4754 98.9063 54.0701 98.6335 53.7216C98.3608 53.3731 98.1506 53.0417 98.0028 52.7273C97.8551 52.4129 97.7812 52.0814 97.7812 51.733C97.7812 51.267 97.8949 50.8447 98.1222 50.4659C98.3532 50.0833 98.6638 49.7803 99.054 49.5568C99.4441 49.3333 99.8835 49.2216 100.372 49.2216C100.857 49.2216 101.285 49.3277 101.656 49.5398C102.027 49.7481 102.317 50.0341 102.526 50.3977C102.734 50.7576 102.838 51.161 102.838 51.608C102.838 52.1042 102.705 52.553 102.44 52.9545C102.179 53.3561 101.772 53.7708 101.219 54.1989L99.3097 55.6193C98.6733 56.1042 98.232 56.536 97.9858 56.9148C97.7434 57.2936 97.6222 57.6648 97.6222 58.0284C97.6222 58.483 97.7396 58.8977 97.9744 59.2727C98.2093 59.6477 98.5294 59.9489 98.9347 60.1761C99.3438 60.4034 99.8078 60.5189 100.327 60.5227C100.849 60.5152 101.332 60.4129 101.776 60.2159C102.219 60.0189 102.609 59.7443 102.946 59.392C103.287 59.036 103.563 58.6136 103.776 58.125C103.991 57.6326 104.132 57.0852 104.196 56.483L104.872 56.517C104.834 56.9905 104.751 57.4167 104.622 57.7955C104.493 58.1705 104.344 58.5019 104.173 58.7898C104.007 59.0777 103.846 59.322 103.69 59.5227C103.645 59.5833 103.601 59.642 103.56 59.6989C103.518 59.7557 103.473 59.8106 103.423 59.8636C103.041 60.2765 102.571 60.5966 102.014 60.8239C101.461 61.0473 100.902 61.1591 100.338 61.1591ZM111.018 50.0227V49.3636H119.172V50.0227H115.45V61H114.74V50.0227H111.018ZM123.653 61.1818C122.866 61.1818 122.18 60.9867 121.597 60.5966C121.013 60.2064 120.563 59.6723 120.244 58.9943C119.926 58.3163 119.767 57.5436 119.767 56.6761C119.767 55.8049 119.926 55.0284 120.244 54.3466C120.566 53.6648 121.008 53.1269 121.568 52.733C122.129 52.339 122.769 52.142 123.489 52.142C123.977 52.142 124.439 52.2405 124.875 52.4375C125.314 52.6307 125.701 52.911 126.034 53.2784C126.371 53.6458 126.634 54.089 126.824 54.608C127.017 55.1269 127.114 55.7102 127.114 56.358V56.7898H120.205V56.1591H126.42C126.42 55.5265 126.292 54.9564 126.034 54.4489C125.777 53.9413 125.426 53.5379 124.983 53.2386C124.54 52.9394 124.042 52.7898 123.489 52.7898C122.909 52.7898 122.392 52.9527 121.938 53.2784C121.487 53.6004 121.129 54.036 120.864 54.5852C120.602 55.1345 120.466 55.7481 120.455 56.4261V56.7102C120.455 57.4375 120.581 58.0909 120.835 58.6705C121.093 59.2462 121.46 59.7027 121.938 60.0398C122.415 60.3731 122.987 60.5398 123.653 60.5398C124.131 60.5398 124.538 60.4602 124.875 60.3011C125.216 60.1383 125.494 59.9413 125.71 59.7102C125.926 59.4792 126.089 59.2557 126.199 59.0398L126.83 59.2955C126.697 59.5871 126.491 59.8788 126.21 60.1705C125.934 60.4583 125.581 60.6989 125.153 60.892C124.729 61.0852 124.229 61.1818 123.653 61.1818ZM132.773 61.1818C132.03 61.1818 131.377 60.9867 130.812 60.5966C130.248 60.2027 129.807 59.6648 129.489 58.983C129.174 58.3011 129.017 57.5284 129.017 56.6648C129.017 55.8011 129.176 55.0284 129.494 54.3466C129.813 53.6648 130.254 53.1269 130.818 52.733C131.383 52.339 132.032 52.142 132.767 52.142C133.32 52.142 133.824 52.2557 134.278 52.483C134.737 52.7102 135.116 53.0265 135.415 53.4318C135.718 53.8371 135.911 54.3068 135.994 54.8409H135.29C135.176 54.25 134.892 53.7614 134.438 53.375C133.987 52.9848 133.432 52.7898 132.773 52.7898C132.182 52.7898 131.655 52.9564 131.193 53.2898C130.731 53.6193 130.367 54.0758 130.102 54.6591C129.837 55.2386 129.705 55.9034 129.705 56.6534C129.705 57.392 129.833 58.0549 130.091 58.642C130.348 59.2254 130.708 59.6875 131.17 60.0284C131.633 60.3693 132.167 60.5398 132.773 60.5398C133.201 60.5398 133.591 60.4545 133.943 60.2841C134.299 60.1136 134.597 59.8712 134.835 59.5568C135.074 59.2424 135.231 58.875 135.307 58.4545H136.011C135.928 58.9924 135.739 59.4659 135.443 59.875C135.148 60.2841 134.771 60.6042 134.312 60.8352C133.854 61.0663 133.341 61.1818 132.773 61.1818ZM139.068 55.3409V61H138.375V49.3636H139.068V53.6534H139.136C139.341 53.1989 139.667 52.8371 140.114 52.5682C140.564 52.2955 141.104 52.1591 141.733 52.1591C142.32 52.1591 142.837 52.2841 143.284 52.5341C143.731 52.7803 144.08 53.1345 144.33 53.5966C144.583 54.0549 144.71 54.6042 144.71 55.2443V61H144.023V55.2727C144.023 54.5265 143.801 53.928 143.358 53.4773C142.915 53.0265 142.33 52.8011 141.602 52.8011C141.114 52.8011 140.678 52.9072 140.295 53.1193C139.913 53.3314 139.612 53.6288 139.392 54.0114C139.176 54.3902 139.068 54.8333 139.068 55.3409ZM155.01 61.1591C154.347 61.1591 153.758 61.0208 153.243 60.7443C152.732 60.4678 152.328 60.0947 152.033 59.625C151.741 59.1515 151.595 58.6193 151.595 58.0284C151.595 57.6345 151.673 57.2746 151.828 56.9489C151.983 56.6193 152.218 56.2955 152.533 55.9773C152.851 55.6553 153.252 55.3144 153.737 54.9545L155.436 53.6875C155.913 53.3314 156.262 52.9981 156.482 52.6875C156.705 52.3731 156.817 52.0133 156.817 51.608C156.817 51.1231 156.65 50.7083 156.317 50.3636C155.987 50.0189 155.567 49.8466 155.055 49.8466C154.707 49.8466 154.387 49.9375 154.095 50.1193C153.807 50.2973 153.576 50.5303 153.402 50.8182C153.232 51.1061 153.146 51.4148 153.146 51.7443C153.146 52.0019 153.207 52.2576 153.328 52.5114C153.453 52.7614 153.629 53.0379 153.857 53.3409C154.088 53.6402 154.364 53.9886 154.686 54.3864L159.982 61H159.141L154.277 54.9375C153.902 54.4754 153.578 54.0701 153.305 53.7216C153.033 53.3731 152.822 53.0417 152.675 52.7273C152.527 52.4129 152.453 52.0814 152.453 51.733C152.453 51.267 152.567 50.8447 152.794 50.4659C153.025 50.0833 153.336 49.7803 153.726 49.5568C154.116 49.3333 154.555 49.2216 155.044 49.2216C155.529 49.2216 155.957 49.3277 156.328 49.5398C156.699 49.7481 156.989 50.0341 157.197 50.3977C157.406 50.7576 157.51 51.161 157.51 51.608C157.51 52.1042 157.377 52.553 157.112 52.9545C156.851 53.3561 156.444 53.7708 155.891 54.1989L153.982 55.6193C153.345 56.1042 152.904 56.536 152.658 56.9148C152.415 57.2936 152.294 57.6648 152.294 58.0284C152.294 58.483 152.411 58.8977 152.646 59.2727C152.881 59.6477 153.201 59.9489 153.607 60.1761C154.016 60.4034 154.48 60.5189 154.999 60.5227C155.521 60.5152 156.004 60.4129 156.447 60.2159C156.891 60.0189 157.281 59.7443 157.618 59.392C157.959 59.036 158.235 58.6136 158.447 58.125C158.663 57.6326 158.804 57.0852 158.868 56.483L159.544 56.517C159.506 56.9905 159.423 57.4167 159.294 57.7955C159.165 58.1705 159.016 58.5019 158.845 58.7898C158.679 59.0777 158.518 59.322 158.362 59.5227C158.317 59.5833 158.273 59.642 158.232 59.6989C158.19 59.7557 158.144 59.8106 158.095 59.8636C157.713 60.2765 157.243 60.5966 156.686 60.8239C156.133 61.0473 155.574 61.1591 155.01 61.1591ZM166.463 61V49.3636H170.048C170.783 49.3636 171.416 49.5076 171.946 49.7955C172.476 50.0833 172.884 50.483 173.168 50.9943C173.452 51.5019 173.594 52.0928 173.594 52.767C173.594 53.4337 173.452 54.0208 173.168 54.5284C172.884 55.0322 172.476 55.4261 171.946 55.7102C171.42 55.9943 170.789 56.1364 170.054 56.1364H166.844V55.4716H170.037C170.635 55.4716 171.147 55.3598 171.571 55.1364C171.995 54.9129 172.321 54.6004 172.548 54.1989C172.776 53.7936 172.889 53.3163 172.889 52.767C172.889 52.214 172.776 51.733 172.548 51.3239C172.321 50.911 171.993 50.5909 171.565 50.3636C171.141 50.1364 170.63 50.0227 170.031 50.0227H167.173V61H166.463ZM171.241 55.7273L174.105 61H173.287L170.44 55.7273H171.241ZM179.338 61.1818C178.618 61.1818 177.978 60.9886 177.418 60.6023C176.857 60.2121 176.416 59.6761 176.094 58.9943C175.772 58.3125 175.611 57.536 175.611 56.6648C175.611 55.7898 175.772 55.0133 176.094 54.3352C176.416 53.6534 176.857 53.1174 177.418 52.7273C177.978 52.3371 178.618 52.142 179.338 52.142C180.058 52.142 180.698 52.3371 181.259 52.7273C181.819 53.1174 182.26 53.6534 182.582 54.3352C182.904 55.017 183.065 55.7936 183.065 56.6648C183.065 57.536 182.904 58.3125 182.582 58.9943C182.26 59.6761 181.819 60.2121 181.259 60.6023C180.698 60.9886 180.058 61.1818 179.338 61.1818ZM179.338 60.5398C179.948 60.5398 180.48 60.3674 180.935 60.0227C181.393 59.678 181.747 59.2121 181.997 58.625C182.251 58.0379 182.378 57.3845 182.378 56.6648C182.378 55.9451 182.251 55.2936 181.997 54.7102C181.743 54.1231 181.389 53.6572 180.935 53.3125C180.48 52.964 179.948 52.7898 179.338 52.7898C178.728 52.7898 178.196 52.964 177.741 53.3125C177.287 53.6572 176.933 54.1231 176.679 54.7102C176.425 55.2936 176.298 55.9451 176.298 56.6648C176.298 57.3845 176.423 58.0379 176.673 58.625C176.927 59.2121 177.281 59.678 177.736 60.0227C178.194 60.3674 178.728 60.5398 179.338 60.5398ZM185.697 61V49.3636H186.385V54.2216H186.453C186.589 53.8466 186.783 53.5019 187.033 53.1875C187.283 52.8731 187.593 52.6212 187.964 52.4318C188.336 52.2386 188.769 52.142 189.266 52.142C189.966 52.142 190.578 52.3371 191.101 52.7273C191.624 53.1136 192.029 53.6477 192.317 54.3295C192.605 55.0076 192.749 55.7841 192.749 56.6591C192.749 57.5417 192.605 58.3239 192.317 59.0057C192.029 59.6837 191.625 60.2159 191.107 60.6023C190.588 60.9886 189.976 61.1818 189.271 61.1818C188.775 61.1818 188.341 61.0871 187.97 60.8977C187.599 60.7045 187.288 60.4508 187.038 60.1364C186.788 59.8182 186.593 59.4716 186.453 59.0966H186.374V61H185.697ZM186.379 56.6534C186.379 57.3958 186.491 58.0606 186.714 58.6477C186.942 59.2311 187.268 59.6932 187.692 60.0341C188.116 60.3712 188.624 60.5398 189.214 60.5398C189.813 60.5398 190.324 60.3693 190.749 60.0284C191.173 59.6837 191.497 59.2178 191.72 58.6307C191.947 58.0436 192.061 57.3845 192.061 56.6534C192.061 55.9223 191.947 55.2652 191.72 54.6818C191.497 54.0985 191.173 53.6383 190.749 53.3011C190.324 52.9602 189.813 52.7898 189.214 52.7898C188.624 52.7898 188.116 52.9583 187.692 53.2955C187.268 53.6288 186.942 54.0871 186.714 54.6705C186.491 55.25 186.379 55.911 186.379 56.6534ZM198.385 61.1818C197.665 61.1818 197.025 60.9886 196.464 60.6023C195.904 60.2121 195.463 59.6761 195.141 58.9943C194.819 58.3125 194.658 57.536 194.658 56.6648C194.658 55.7898 194.819 55.0133 195.141 54.3352C195.463 53.6534 195.904 53.1174 196.464 52.7273C197.025 52.3371 197.665 52.142 198.385 52.142C199.105 52.142 199.745 52.3371 200.305 52.7273C200.866 53.1174 201.307 53.6534 201.629 54.3352C201.951 55.017 202.112 55.7936 202.112 56.6648C202.112 57.536 201.951 58.3125 201.629 58.9943C201.307 59.6761 200.866 60.2121 200.305 60.6023C199.745 60.9886 199.105 61.1818 198.385 61.1818ZM198.385 60.5398C198.995 60.5398 199.527 60.3674 199.982 60.0227C200.44 59.678 200.794 59.2121 201.044 58.625C201.298 58.0379 201.425 57.3845 201.425 56.6648C201.425 55.9451 201.298 55.2936 201.044 54.7102C200.79 54.1231 200.436 53.6572 199.982 53.3125C199.527 52.964 198.995 52.7898 198.385 52.7898C197.775 52.7898 197.243 52.964 196.788 53.3125C196.334 53.6572 195.98 54.1231 195.726 54.7102C195.472 55.2936 195.345 55.9451 195.345 56.6648C195.345 57.3845 195.47 58.0379 195.72 58.625C195.974 59.2121 196.328 59.678 196.783 60.0227C197.241 60.3674 197.775 60.5398 198.385 60.5398ZM207.585 52.2727V52.892H203.773V52.2727H207.585ZM205.062 50.1818H205.75V58.9375C205.75 59.2936 205.818 59.5852 205.955 59.8125C206.095 60.036 206.277 60.2027 206.5 60.3125C206.727 60.4186 206.97 60.4716 207.227 60.4716C207.352 60.4716 207.46 60.4621 207.551 60.4432C207.646 60.4242 207.735 60.3996 207.818 60.3693L207.989 61C207.883 61.0379 207.765 61.0701 207.636 61.0966C207.508 61.1269 207.356 61.142 207.182 61.142C206.818 61.142 206.473 61.0606 206.148 60.8977C205.826 60.7348 205.564 60.4981 205.364 60.1875C205.163 59.8769 205.062 59.5019 205.062 59.0625V50.1818Z" fill="#B9B9B9"/>
</svg>
